# xmcd
#
# Track frame offsets: 
#        150
#        13932
#        25995
#        52534
#        71435
#        87084
#        98887
#        112682
#        125204
#        134803
#        148041
#        159292
#        169857
#        184472
#        203963
#        218624
#        232085
#        254964
#        267715
#        282397
#        295437
#        308571
#        324058
#        338682
#
# Disc length: 4741 seconds
#
# Revision: 0
# Processed by: cddbd v1.5.2PL0 Copyright (c) Steve Scherf et al.
# Submitted via: ExactAudioCopyFreeDBPlugin 1.0
#
DISCID=70128318
DTITLE=Various Artist - VA - Really the Blues - Disc 20
DYEAR=1900
DGENRE=40s
TTITLE0=Art Hodes - Liberty Inn Drag
TTITLE1=Hobart Smith - The Cuckoo Bird
TTITLE2=David Honeyboy Edwards - Water Coast Blues
TTITLE3=Bozie Sturdevant - Ain't No Grave Gonna Keep My Body Down
TTITLE4=Taylor Junior Johnson - When I Lay My Burden Down
TTITLE5=Ernest Tubb - Walking the Floor Over You
TTITLE6=Glenn Miller - Rhapsody in Blue
TTITLE7=Son Simms 4 with Muddy Waters - Joe Turner Blues
TTITLE8=Nashville Washboard Band - Old Joe
TTITLE9=Louis Jordan - I'm Gonna Leave You on the Outskirts of Town
TTITLE10=Ted Daffan - Bluest Blues
TTITLE11=Nathan Frazier - Corinne
TTITLE12=Helen Humes - Unlucky Blues
TTITLE13=Bob Crosby - Chain Gang
TTITLE14=Billie Holiday - Travelin' Light
TTITLE15=Count Basie - How Long Blues
TTITLE16=Son House - Low Down Dirty Dog Blues
TTITLE17=Harry Partch - The Letter
TTITLE18=Dave Apollon - St. Louis Blues
TTITLE19=Cripple Clarence Lofton - I Don't Know
TTITLE20=Stan Hasselgard - When I'm Dead and Buried
TTITLE21=Josh White - Jelly Jelly
TTITLE22=Mary Lou Williams - St. Louis Blues
TTITLE23=Hot Lips Page - I Keep Rollin' On
EXTD=
EXTT0=
EXTT1=
EXTT2=
EXTT3=
EXTT4=
EXTT5=
EXTT6=
EXTT7=
EXTT8=
EXTT9=
EXTT10=
EXTT11=
EXTT12=
EXTT13=
EXTT14=
EXTT15=
EXTT16=
EXTT17=
EXTT18=
EXTT19=
EXTT20=
EXTT21=
EXTT22=
EXTT23=
PLAYORDER=
